# xmcd CD database file
# Copyright (C) 1997 Ti Kan
# 
# Track frame offsets:
#     150
#     21905
#     44942
#     65087
#     84300
#     103840
#     121667
#     139335
#     154542
#     173165
#     194465
#     214705
# 
# Disc length: 3139 seconds
# 
# Revision: 1
# Processed by: cddbd v1.4b41PL1 Copyright (c) Steve Scherf et al.
# Submitted via: DiscPlay 4.0.4
# 
DISCID=ac0c410c
DTITLE=Poor Righteous Teachers - Black Business
DYEAR=1900
DGENRE=
TTITLE0=144K
TTITLE1=Da Rill Shit
TTITLE2=Nobody Move
TTITLE3=Mi Fresh
TTITLE4=Here We Go Again
TTITLE5=Selah
TTITLE6=Balck Business
TTITLE7=Get Off the Crack
TTITLE8=None Can Test
TTITLE9=Ghetto We Love
TTITLE10=Rich Mon Time
TTITLE11=Lick Shots
EXTD=
EXTT0=
EXTT1=
EXTT2=
EXTT3=
EXTT4=
EXTT5=
EXTT6=
EXTT7=
EXTT8=
EXTT9=
EXTT10=
EXTT11=
PLAYORDER=
